<?xml version="1.0" encoding="UTF-8" standalone="no"?>
<!DOCTYPE svg PUBLIC "-//W3C//DTD SVG 1.1//EN"
 "http://www.w3.org/Graphics/SVG/1.1/DTD/svg11.dtd">
<!-- Generated by graphviz version 14.1.1 (20251213.1925)
 -->
<!-- Title: InheritanceTree Pages: 1 -->
<svg width="430pt" height="2445pt"
 viewBox="0.00 0.00 430.00 2445.00" xmlns="http://www.w3.org/2000/svg" xmlns:xlink="http://www.w3.org/1999/xlink">
<g id="graph0" class="graph" transform="scale(1 1) rotate(0) translate(4 2440.5)">
<title>InheritanceTree</title>
<polygon fill="white" stroke="none" points="-4,4 -4,-2440.5 426,-2440.5 426,4 -4,4"/>
<text xml:space="preserve" text-anchor="middle" x="211" y="-7.2" font-family="Times New Roman,serif" font-size="14.00">simple_htmx &#45; Inheritance Hierarchy</text>
<!-- HTMX_ELEMENT -->
<g id="node1" class="node">
<title>HTMX_ELEMENT</title>
<path fill="none" stroke="black" d="M410,-1068.5C410,-1068.5 307,-1068.5 307,-1068.5 301,-1068.5 295,-1062.5 295,-1056.5 295,-1056.5 295,-1044.5 295,-1044.5 295,-1038.5 301,-1032.5 307,-1032.5 307,-1032.5 410,-1032.5 410,-1032.5 416,-1032.5 422,-1038.5 422,-1044.5 422,-1044.5 422,-1056.5 422,-1056.5 422,-1062.5 416,-1068.5 410,-1068.5"/>
<text xml:space="preserve" text-anchor="middle" x="358.5" y="-1045.45" font-family="Times New Roman,serif" font-size="14.00">HTMX_ELEMENT</text>
</g>
<!-- HTMX_FACTORY -->
<g id="node2" class="node">
<title>HTMX_FACTORY</title>
<path fill="none" stroke="black" d="M143.88,-2148.5C143.88,-2148.5 43.12,-2148.5 43.12,-2148.5 37.12,-2148.5 31.13,-2142.5 31.13,-2136.5 31.13,-2136.5 31.13,-2124.5 31.13,-2124.5 31.13,-2118.5 37.13,-2112.5 43.13,-2112.5 43.13,-2112.5 143.88,-2112.5 143.88,-2112.5 149.88,-2112.5 155.88,-2118.5 155.88,-2124.5 155.88,-2124.5 155.88,-2136.5 155.88,-2136.5 155.88,-2142.5 149.88,-2148.5 143.88,-2148.5"/>
<text xml:space="preserve" text-anchor="middle" x="93.5" y="-2125.45" font-family="Times New Roman,serif" font-size="14.00">HTMX_FACTORY</text>
</g>
<!-- HTMX_RENDER_CONTEXT -->
<g id="node3" class="node">
<title>HTMX_RENDER_CONTEXT</title>
<path fill="none" stroke="black" d="M175,-2220.5C175,-2220.5 12,-2220.5 12,-2220.5 6,-2220.5 0,-2214.5 0,-2208.5 0,-2208.5 0,-2196.5 0,-2196.5 0,-2190.5 6,-2184.5 12,-2184.5 12,-2184.5 175,-2184.5 175,-2184.5 181,-2184.5 187,-2190.5 187,-2196.5 187,-2196.5 187,-2208.5 187,-2208.5 187,-2214.5 181,-2220.5 175,-2220.5"/>
<text xml:space="preserve" text-anchor="middle" x="93.5" y="-2197.45" font-family="Times New Roman,serif" font-size="14.00">HTMX_RENDER_CONTEXT</text>
</g>
<!-- HTMX_A -->
<g id="node4" class="node">
<title>HTMX_A</title>
<path fill="none" stroke="black" d="M118,-2076.5C118,-2076.5 69,-2076.5 69,-2076.5 63,-2076.5 57,-2070.5 57,-2064.5 57,-2064.5 57,-2052.5 57,-2052.5 57,-2046.5 63,-2040.5 69,-2040.5 69,-2040.5 118,-2040.5 118,-2040.5 124,-2040.5 130,-2046.5 130,-2052.5 130,-2052.5 130,-2064.5 130,-2064.5 130,-2070.5 124,-2076.5 118,-2076.5"/>
<text xml:space="preserve" text-anchor="middle" x="93.5" y="-2053.45" font-family="Times New Roman,serif" font-size="14.00">HTMX_A</text>
</g>
<!-- HTMX_A&#45;&gt;HTMX_ELEMENT -->
<g id="edge1" class="edge">
<title>HTMX_A&#45;&gt;HTMX_ELEMENT</title>
<path fill="none" stroke="black" d="M130.43,-2058.5C213.92,-2058.5 410,-2058.5 410,-2058.5 410,-2058.5 410,-1080.37 410,-1080.37"/>
<polygon fill="none" stroke="black" points="413.5,-1080.37 410,-1070.37 406.5,-1080.37 413.5,-1080.37"/>
</g>
<!-- HTMX_BR -->
<g id="node5" class="node">
<title>HTMX_BR</title>
<path fill="none" stroke="black" d="M122.12,-2004.5C122.12,-2004.5 64.88,-2004.5 64.88,-2004.5 58.88,-2004.5 52.88,-1998.5 52.88,-1992.5 52.88,-1992.5 52.88,-1980.5 52.88,-1980.5 52.88,-1974.5 58.88,-1968.5 64.88,-1968.5 64.88,-1968.5 122.12,-1968.5 122.12,-1968.5 128.12,-1968.5 134.12,-1974.5 134.12,-1980.5 134.12,-1980.5 134.12,-1992.5 134.12,-1992.5 134.12,-1998.5 128.12,-2004.5 122.12,-2004.5"/>
<text xml:space="preserve" text-anchor="middle" x="93.5" y="-1981.45" font-family="Times New Roman,serif" font-size="14.00">HTMX_BR</text>
</g>
<!-- HTMX_BR&#45;&gt;HTMX_ELEMENT -->
<g id="edge2" class="edge">
<title>HTMX_BR&#45;&gt;HTMX_ELEMENT</title>
<path fill="none" stroke="black" d="M134.33,-1986.5C217.98,-1986.5 401,-1986.5 401,-1986.5 401,-1986.5 401,-1080.29 401,-1080.29"/>
<polygon fill="none" stroke="black" points="404.5,-1080.29 401,-1070.29 397.5,-1080.29 404.5,-1080.29"/>
</g>
<!-- HTMX_BUTTON -->
<g id="node6" class="node">
<title>HTMX_BUTTON</title>
<path fill="none" stroke="black" d="M140.5,-1932.5C140.5,-1932.5 46.5,-1932.5 46.5,-1932.5 40.5,-1932.5 34.5,-1926.5 34.5,-1920.5 34.5,-1920.5 34.5,-1908.5 34.5,-1908.5 34.5,-1902.5 40.5,-1896.5 46.5,-1896.5 46.5,-1896.5 140.5,-1896.5 140.5,-1896.5 146.5,-1896.5 152.5,-1902.5 152.5,-1908.5 152.5,-1908.5 152.5,-1920.5 152.5,-1920.5 152.5,-1926.5 146.5,-1932.5 140.5,-1932.5"/>
<text xml:space="preserve" text-anchor="middle" x="93.5" y="-1909.45" font-family="Times New Roman,serif" font-size="14.00">HTMX_BUTTON</text>
</g>
<!-- HTMX_BUTTON&#45;&gt;HTMX_ELEMENT -->
<g id="edge3" class="edge">
<title>HTMX_BUTTON&#45;&gt;HTMX_ELEMENT</title>
<path fill="none" stroke="black" d="M152.67,-1914.5C239.96,-1914.5 393,-1914.5 393,-1914.5 393,-1914.5 393,-1080.46 393,-1080.46"/>
<polygon fill="none" stroke="black" points="396.5,-1080.46 393,-1070.46 389.5,-1080.46 396.5,-1080.46"/>
</g>
<!-- HTMX_DIV -->
<g id="node7" class="node">
<title>HTMX_DIV</title>
<path fill="none" stroke="black" d="M125.12,-1860.5C125.12,-1860.5 61.88,-1860.5 61.88,-1860.5 55.88,-1860.5 49.88,-1854.5 49.88,-1848.5 49.88,-1848.5 49.88,-1836.5 49.88,-1836.5 49.88,-1830.5 55.88,-1824.5 61.88,-1824.5 61.88,-1824.5 125.12,-1824.5 125.12,-1824.5 131.12,-1824.5 137.12,-1830.5 137.12,-1836.5 137.12,-1836.5 137.12,-1848.5 137.12,-1848.5 137.12,-1854.5 131.12,-1860.5 125.12,-1860.5"/>
<text xml:space="preserve" text-anchor="middle" x="93.5" y="-1837.45" font-family="Times New Roman,serif" font-size="14.00">HTMX_DIV</text>
</g>
<!-- HTMX_DIV&#45;&gt;HTMX_ELEMENT -->
<g id="edge4" class="edge">
<title>HTMX_DIV&#45;&gt;HTMX_ELEMENT</title>
<path fill="none" stroke="black" d="M137.62,-1842.5C218.89,-1842.5 384,-1842.5 384,-1842.5 384,-1842.5 384,-1080.42 384,-1080.42"/>
<polygon fill="none" stroke="black" points="387.5,-1080.42 384,-1070.42 380.5,-1080.43 387.5,-1080.42"/>
</g>
<!-- HTMX_FORM -->
<g id="node8" class="node">
<title>HTMX_FORM</title>
<path fill="none" stroke="black" d="M132.62,-1788.5C132.62,-1788.5 54.38,-1788.5 54.38,-1788.5 48.38,-1788.5 42.38,-1782.5 42.38,-1776.5 42.38,-1776.5 42.38,-1764.5 42.38,-1764.5 42.38,-1758.5 48.38,-1752.5 54.38,-1752.5 54.38,-1752.5 132.62,-1752.5 132.62,-1752.5 138.62,-1752.5 144.62,-1758.5 144.62,-1764.5 144.62,-1764.5 144.62,-1776.5 144.62,-1776.5 144.62,-1782.5 138.62,-1788.5 132.62,-1788.5"/>
<text xml:space="preserve" text-anchor="middle" x="93.5" y="-1765.45" font-family="Times New Roman,serif" font-size="14.00">HTMX_FORM</text>
</g>
<!-- HTMX_FORM&#45;&gt;HTMX_ELEMENT -->
<g id="edge5" class="edge">
<title>HTMX_FORM&#45;&gt;HTMX_ELEMENT</title>
<path fill="none" stroke="black" d="M144.99,-1770.5C226.47,-1770.5 376,-1770.5 376,-1770.5 376,-1770.5 376,-1080.17 376,-1080.17"/>
<polygon fill="none" stroke="black" points="379.5,-1080.17 376,-1070.17 372.5,-1080.17 379.5,-1080.17"/>
</g>
<!-- HTMX_H1 -->
<g id="node9" class="node">
<title>HTMX_H1</title>
<path fill="none" stroke="black" d="M121.38,-1716.5C121.38,-1716.5 65.62,-1716.5 65.62,-1716.5 59.62,-1716.5 53.62,-1710.5 53.62,-1704.5 53.62,-1704.5 53.62,-1692.5 53.62,-1692.5 53.62,-1686.5 59.62,-1680.5 65.62,-1680.5 65.62,-1680.5 121.38,-1680.5 121.38,-1680.5 127.38,-1680.5 133.38,-1686.5 133.38,-1692.5 133.38,-1692.5 133.38,-1704.5 133.38,-1704.5 133.38,-1710.5 127.38,-1716.5 121.38,-1716.5"/>
<text xml:space="preserve" text-anchor="middle" x="93.5" y="-1693.45" font-family="Times New Roman,serif" font-size="14.00">HTMX_H1</text>
</g>
<!-- HTMX_H1&#45;&gt;HTMX_ELEMENT -->
<g id="edge6" class="edge">
<title>HTMX_H1&#45;&gt;HTMX_ELEMENT</title>
<path fill="none" stroke="black" d="M133.86,-1698.5C209.93,-1698.5 367,-1698.5 367,-1698.5 367,-1698.5 367,-1080.36 367,-1080.36"/>
<polygon fill="none" stroke="black" points="370.5,-1080.36 367,-1070.36 363.5,-1080.36 370.5,-1080.36"/>
</g>
<!-- HTMX_H2 -->
<g id="node10" class="node">
<title>HTMX_H2</title>
<path fill="none" stroke="black" d="M121.38,-1644.5C121.38,-1644.5 65.62,-1644.5 65.62,-1644.5 59.62,-1644.5 53.62,-1638.5 53.62,-1632.5 53.62,-1632.5 53.62,-1620.5 53.62,-1620.5 53.62,-1614.5 59.62,-1608.5 65.62,-1608.5 65.62,-1608.5 121.38,-1608.5 121.38,-1608.5 127.38,-1608.5 133.38,-1614.5 133.38,-1620.5 133.38,-1620.5 133.38,-1632.5 133.38,-1632.5 133.38,-1638.5 127.38,-1644.5 121.38,-1644.5"/>
<text xml:space="preserve" text-anchor="middle" x="93.5" y="-1621.45" font-family="Times New Roman,serif" font-size="14.00">HTMX_H2</text>
</g>
<!-- HTMX_H2&#45;&gt;HTMX_ELEMENT -->
<g id="edge7" class="edge">
<title>HTMX_H2&#45;&gt;HTMX_ELEMENT</title>
<path fill="none" stroke="black" d="M133.67,-1626.5C207.66,-1626.5 358,-1626.5 358,-1626.5 358,-1626.5 358,-1080.2 358,-1080.2"/>
<polygon fill="none" stroke="black" points="361.5,-1080.2 358,-1070.2 354.5,-1080.2 361.5,-1080.2"/>
</g>
<!-- HTMX_H3 -->
<g id="node11" class="node">
<title>HTMX_H3</title>
<path fill="none" stroke="black" d="M121.38,-1572.5C121.38,-1572.5 65.62,-1572.5 65.62,-1572.5 59.62,-1572.5 53.62,-1566.5 53.62,-1560.5 53.62,-1560.5 53.62,-1548.5 53.62,-1548.5 53.62,-1542.5 59.62,-1536.5 65.62,-1536.5 65.62,-1536.5 121.38,-1536.5 121.38,-1536.5 127.38,-1536.5 133.38,-1542.5 133.38,-1548.5 133.38,-1548.5 133.38,-1560.5 133.38,-1560.5 133.38,-1566.5 127.38,-1572.5 121.38,-1572.5"/>
<text xml:space="preserve" text-anchor="middle" x="93.5" y="-1549.45" font-family="Times New Roman,serif" font-size="14.00">HTMX_H3</text>
</g>
<!-- HTMX_H3&#45;&gt;HTMX_ELEMENT -->
<g id="edge8" class="edge">
<title>HTMX_H3&#45;&gt;HTMX_ELEMENT</title>
<path fill="none" stroke="black" d="M133.86,-1554.5C206.09,-1554.5 350,-1554.5 350,-1554.5 350,-1554.5 350,-1080.25 350,-1080.25"/>
<polygon fill="none" stroke="black" points="353.5,-1080.25 350,-1070.25 346.5,-1080.25 353.5,-1080.25"/>
</g>
<!-- HTMX_H4 -->
<g id="node12" class="node">
<title>HTMX_H4</title>
<path fill="none" stroke="black" d="M121.38,-1500.5C121.38,-1500.5 65.62,-1500.5 65.62,-1500.5 59.62,-1500.5 53.62,-1494.5 53.62,-1488.5 53.62,-1488.5 53.62,-1476.5 53.62,-1476.5 53.62,-1470.5 59.62,-1464.5 65.62,-1464.5 65.62,-1464.5 121.38,-1464.5 121.38,-1464.5 127.38,-1464.5 133.38,-1470.5 133.38,-1476.5 133.38,-1476.5 133.38,-1488.5 133.38,-1488.5 133.38,-1494.5 127.38,-1500.5 121.38,-1500.5"/>
<text xml:space="preserve" text-anchor="middle" x="93.5" y="-1477.45" font-family="Times New Roman,serif" font-size="14.00">HTMX_H4</text>
</g>
<!-- HTMX_H4&#45;&gt;HTMX_ELEMENT -->
<g id="edge9" class="edge">
<title>HTMX_H4&#45;&gt;HTMX_ELEMENT</title>
<path fill="none" stroke="black" d="M133.82,-1482.5C203.95,-1482.5 341,-1482.5 341,-1482.5 341,-1482.5 341,-1080.3 341,-1080.3"/>
<polygon fill="none" stroke="black" points="344.5,-1080.3 341,-1070.3 337.5,-1080.3 344.5,-1080.3"/>
</g>
<!-- HTMX_H5 -->
<g id="node13" class="node">
<title>HTMX_H5</title>
<path fill="none" stroke="black" d="M121.38,-1428.5C121.38,-1428.5 65.62,-1428.5 65.62,-1428.5 59.62,-1428.5 53.62,-1422.5 53.62,-1416.5 53.62,-1416.5 53.62,-1404.5 53.62,-1404.5 53.62,-1398.5 59.62,-1392.5 65.62,-1392.5 65.62,-1392.5 121.38,-1392.5 121.38,-1392.5 127.38,-1392.5 133.38,-1398.5 133.38,-1404.5 133.38,-1404.5 133.38,-1416.5 133.38,-1416.5 133.38,-1422.5 127.38,-1428.5 121.38,-1428.5"/>
<text xml:space="preserve" text-anchor="middle" x="93.5" y="-1405.45" font-family="Times New Roman,serif" font-size="14.00">HTMX_H5</text>
</g>
<!-- HTMX_H5&#45;&gt;HTMX_ELEMENT -->
<g id="edge10" class="edge">
<title>HTMX_H5&#45;&gt;HTMX_ELEMENT</title>
<path fill="none" stroke="black" d="M133.86,-1410.5C202.11,-1410.5 333,-1410.5 333,-1410.5 333,-1410.5 333,-1080.36 333,-1080.36"/>
<polygon fill="none" stroke="black" points="336.5,-1080.36 333,-1070.36 329.5,-1080.36 336.5,-1080.36"/>
</g>
<!-- HTMX_HR -->
<g id="node14" class="node">
<title>HTMX_HR</title>
<path fill="none" stroke="black" d="M122.5,-1356.5C122.5,-1356.5 64.5,-1356.5 64.5,-1356.5 58.5,-1356.5 52.5,-1350.5 52.5,-1344.5 52.5,-1344.5 52.5,-1332.5 52.5,-1332.5 52.5,-1326.5 58.5,-1320.5 64.5,-1320.5 64.5,-1320.5 122.5,-1320.5 122.5,-1320.5 128.5,-1320.5 134.5,-1326.5 134.5,-1332.5 134.5,-1332.5 134.5,-1344.5 134.5,-1344.5 134.5,-1350.5 128.5,-1356.5 122.5,-1356.5"/>
<text xml:space="preserve" text-anchor="middle" x="93.5" y="-1333.45" font-family="Times New Roman,serif" font-size="14.00">HTMX_HR</text>
</g>
<!-- HTMX_HR&#45;&gt;HTMX_ELEMENT -->
<g id="edge11" class="edge">
<title>HTMX_HR&#45;&gt;HTMX_ELEMENT</title>
<path fill="none" stroke="black" d="M134.97,-1338.5C201.34,-1338.5 324,-1338.5 324,-1338.5 324,-1338.5 324,-1080.47 324,-1080.47"/>
<polygon fill="none" stroke="black" points="327.5,-1080.47 324,-1070.47 320.5,-1080.47 327.5,-1080.47"/>
</g>
<!-- HTMX_IMG -->
<g id="node15" class="node">
<title>HTMX_IMG</title>
<path fill="none" stroke="black" d="M126.62,-1284.5C126.62,-1284.5 60.38,-1284.5 60.38,-1284.5 54.38,-1284.5 48.38,-1278.5 48.38,-1272.5 48.38,-1272.5 48.38,-1260.5 48.38,-1260.5 48.38,-1254.5 54.38,-1248.5 60.38,-1248.5 60.38,-1248.5 126.62,-1248.5 126.62,-1248.5 132.62,-1248.5 138.62,-1254.5 138.62,-1260.5 138.62,-1260.5 138.62,-1272.5 138.62,-1272.5 138.62,-1278.5 132.62,-1284.5 126.62,-1284.5"/>
<text xml:space="preserve" text-anchor="middle" x="93.5" y="-1261.45" font-family="Times New Roman,serif" font-size="14.00">HTMX_IMG</text>
</g>
<!-- HTMX_IMG&#45;&gt;HTMX_ELEMENT -->
<g id="edge12" class="edge">
<title>HTMX_IMG&#45;&gt;HTMX_ELEMENT</title>
<path fill="none" stroke="black" d="M139.06,-1266.5C204.16,-1266.5 316,-1266.5 316,-1266.5 316,-1266.5 316,-1080.43 316,-1080.43"/>
<polygon fill="none" stroke="black" points="319.5,-1080.43 316,-1070.43 312.5,-1080.43 319.5,-1080.43"/>
</g>
<!-- HTMX_INPUT -->
<g id="node16" class="node">
<title>HTMX_INPUT</title>
<path fill="none" stroke="black" d="M133,-1212.5C133,-1212.5 54,-1212.5 54,-1212.5 48,-1212.5 42,-1206.5 42,-1200.5 42,-1200.5 42,-1188.5 42,-1188.5 42,-1182.5 48,-1176.5 54,-1176.5 54,-1176.5 133,-1176.5 133,-1176.5 139,-1176.5 145,-1182.5 145,-1188.5 145,-1188.5 145,-1200.5 145,-1200.5 145,-1206.5 139,-1212.5 133,-1212.5"/>
<text xml:space="preserve" text-anchor="middle" x="93.5" y="-1189.45" font-family="Times New Roman,serif" font-size="14.00">HTMX_INPUT</text>
</g>
<!-- HTMX_INPUT&#45;&gt;HTMX_ELEMENT -->
<g id="edge13" class="edge">
<title>HTMX_INPUT&#45;&gt;HTMX_ELEMENT</title>
<path fill="none" stroke="black" d="M145.45,-1194.5C208.65,-1194.5 307,-1194.5 307,-1194.5 307,-1194.5 307,-1080.25 307,-1080.25"/>
<polygon fill="none" stroke="black" points="310.5,-1080.25 307,-1070.25 303.5,-1080.25 310.5,-1080.25"/>
</g>
<!-- HTMX_LABEL -->
<g id="node17" class="node">
<title>HTMX_LABEL</title>
<path fill="none" stroke="black" d="M134.88,-1140.5C134.88,-1140.5 52.12,-1140.5 52.12,-1140.5 46.12,-1140.5 40.13,-1134.5 40.13,-1128.5 40.13,-1128.5 40.13,-1116.5 40.13,-1116.5 40.13,-1110.5 46.13,-1104.5 52.13,-1104.5 52.13,-1104.5 134.88,-1104.5 134.88,-1104.5 140.88,-1104.5 146.88,-1110.5 146.88,-1116.5 146.88,-1116.5 146.88,-1128.5 146.88,-1128.5 146.88,-1134.5 140.88,-1140.5 134.88,-1140.5"/>
<text xml:space="preserve" text-anchor="middle" x="93.5" y="-1117.45" font-family="Times New Roman,serif" font-size="14.00">HTMX_LABEL</text>
</g>
<!-- HTMX_LABEL&#45;&gt;HTMX_ELEMENT -->
<g id="edge14" class="edge">
<title>HTMX_LABEL&#45;&gt;HTMX_ELEMENT</title>
<path fill="none" stroke="black" d="M143,-1104.28C143,-1085.67 143,-1059.5 143,-1059.5 143,-1059.5 283.2,-1059.5 283.2,-1059.5"/>
<polygon fill="none" stroke="black" points="283.2,-1063 293.2,-1059.5 283.2,-1056 283.2,-1063"/>
</g>
<!-- HTMX_LI -->
<g id="node18" class="node">
<title>HTMX_LI</title>
<path fill="none" stroke="black" d="M119.5,-1068.5C119.5,-1068.5 67.5,-1068.5 67.5,-1068.5 61.5,-1068.5 55.5,-1062.5 55.5,-1056.5 55.5,-1056.5 55.5,-1044.5 55.5,-1044.5 55.5,-1038.5 61.5,-1032.5 67.5,-1032.5 67.5,-1032.5 119.5,-1032.5 119.5,-1032.5 125.5,-1032.5 131.5,-1038.5 131.5,-1044.5 131.5,-1044.5 131.5,-1056.5 131.5,-1056.5 131.5,-1062.5 125.5,-1068.5 119.5,-1068.5"/>
<text xml:space="preserve" text-anchor="middle" x="93.5" y="-1045.45" font-family="Times New Roman,serif" font-size="14.00">HTMX_LI</text>
</g>
<!-- HTMX_LI&#45;&gt;HTMX_ELEMENT -->
<g id="edge15" class="edge">
<title>HTMX_LI&#45;&gt;HTMX_ELEMENT</title>
<path fill="none" stroke="black" d="M131.75,-1050.5C131.75,-1050.5 283.13,-1050.5 283.13,-1050.5"/>
<polygon fill="none" stroke="black" points="283.13,-1054 293.13,-1050.5 283.13,-1047 283.13,-1054"/>
</g>
<!-- HTMX_OL -->
<g id="node19" class="node">
<title>HTMX_OL</title>
<path fill="none" stroke="black" d="M122.12,-996.5C122.12,-996.5 64.88,-996.5 64.88,-996.5 58.88,-996.5 52.88,-990.5 52.88,-984.5 52.88,-984.5 52.88,-972.5 52.88,-972.5 52.88,-966.5 58.88,-960.5 64.88,-960.5 64.88,-960.5 122.12,-960.5 122.12,-960.5 128.12,-960.5 134.12,-966.5 134.12,-972.5 134.12,-972.5 134.12,-984.5 134.12,-984.5 134.12,-990.5 128.12,-996.5 122.12,-996.5"/>
<text xml:space="preserve" text-anchor="middle" x="93.5" y="-973.45" font-family="Times New Roman,serif" font-size="14.00">HTMX_OL</text>
</g>
<!-- HTMX_OL&#45;&gt;HTMX_ELEMENT -->
<g id="edge16" class="edge">
<title>HTMX_OL&#45;&gt;HTMX_ELEMENT</title>
<path fill="none" stroke="black" d="M134.59,-978.5C195.85,-978.5 304,-978.5 304,-978.5 304,-978.5 304,-1020.82 304,-1020.82"/>
<polygon fill="none" stroke="black" points="300.5,-1020.82 304,-1030.82 307.5,-1020.82 300.5,-1020.82"/>
</g>
<!-- HTMX_OPTION -->
<g id="node20" class="node">
<title>HTMX_OPTION</title>
<path fill="none" stroke="black" d="M137.88,-924.5C137.88,-924.5 49.12,-924.5 49.12,-924.5 43.12,-924.5 37.12,-918.5 37.12,-912.5 37.12,-912.5 37.12,-900.5 37.12,-900.5 37.12,-894.5 43.12,-888.5 49.12,-888.5 49.12,-888.5 137.88,-888.5 137.88,-888.5 143.88,-888.5 149.88,-894.5 149.88,-900.5 149.88,-900.5 149.88,-912.5 149.88,-912.5 149.88,-918.5 143.88,-924.5 137.88,-924.5"/>
<text xml:space="preserve" text-anchor="middle" x="93.5" y="-901.45" font-family="Times New Roman,serif" font-size="14.00">HTMX_OPTION</text>
</g>
<!-- HTMX_OPTION&#45;&gt;HTMX_ELEMENT -->
<g id="edge17" class="edge">
<title>HTMX_OPTION&#45;&gt;HTMX_ELEMENT</title>
<path fill="none" stroke="black" d="M138,-924.99C138,-961.96 138,-1041.5 138,-1041.5 138,-1041.5 283.21,-1041.5 283.21,-1041.5"/>
<polygon fill="none" stroke="black" points="283.21,-1045 293.21,-1041.5 283.21,-1038 283.21,-1045"/>
</g>
<!-- HTMX_P -->
<g id="node21" class="node">
<title>HTMX_P</title>
<path fill="none" stroke="black" d="M116.88,-852.5C116.88,-852.5 70.12,-852.5 70.12,-852.5 64.12,-852.5 58.12,-846.5 58.12,-840.5 58.12,-840.5 58.12,-828.5 58.12,-828.5 58.12,-822.5 64.12,-816.5 70.12,-816.5 70.12,-816.5 116.88,-816.5 116.88,-816.5 122.88,-816.5 128.88,-822.5 128.88,-828.5 128.88,-828.5 128.88,-840.5 128.88,-840.5 128.88,-846.5 122.88,-852.5 116.88,-852.5"/>
<text xml:space="preserve" text-anchor="middle" x="93.5" y="-829.45" font-family="Times New Roman,serif" font-size="14.00">HTMX_P</text>
</g>
<!-- HTMX_P&#45;&gt;HTMX_ELEMENT -->
<g id="edge18" class="edge">
<title>HTMX_P&#45;&gt;HTMX_ELEMENT</title>
<path fill="none" stroke="black" d="M129.25,-834.5C191.45,-834.5 313,-834.5 313,-834.5 313,-834.5 313,-1020.57 313,-1020.57"/>
<polygon fill="none" stroke="black" points="309.5,-1020.57 313,-1030.57 316.5,-1020.57 309.5,-1020.57"/>
</g>
<!-- HTMX_SELECT -->
<g id="node22" class="node">
<title>HTMX_SELECT</title>
<path fill="none" stroke="black" d="M137.88,-780.5C137.88,-780.5 49.12,-780.5 49.12,-780.5 43.12,-780.5 37.12,-774.5 37.12,-768.5 37.12,-768.5 37.12,-756.5 37.12,-756.5 37.12,-750.5 43.12,-744.5 49.12,-744.5 49.12,-744.5 137.88,-744.5 137.88,-744.5 143.88,-744.5 149.88,-750.5 149.88,-756.5 149.88,-756.5 149.88,-768.5 149.88,-768.5 149.88,-774.5 143.88,-780.5 137.88,-780.5"/>
<text xml:space="preserve" text-anchor="middle" x="93.5" y="-757.45" font-family="Times New Roman,serif" font-size="14.00">HTMX_SELECT</text>
</g>
<!-- HTMX_SELECT&#45;&gt;HTMX_ELEMENT -->
<g id="edge19" class="edge">
<title>HTMX_SELECT&#45;&gt;HTMX_ELEMENT</title>
<path fill="none" stroke="black" d="M150.28,-762.5C217.95,-762.5 322,-762.5 322,-762.5 322,-762.5 322,-1020.53 322,-1020.53"/>
<polygon fill="none" stroke="black" points="318.5,-1020.53 322,-1030.53 325.5,-1020.53 318.5,-1020.53"/>
</g>
<!-- HTMX_SPAN -->
<g id="node23" class="node">
<title>HTMX_SPAN</title>
<path fill="none" stroke="black" d="M130,-708.5C130,-708.5 57,-708.5 57,-708.5 51,-708.5 45,-702.5 45,-696.5 45,-696.5 45,-684.5 45,-684.5 45,-678.5 51,-672.5 57,-672.5 57,-672.5 130,-672.5 130,-672.5 136,-672.5 142,-678.5 142,-684.5 142,-684.5 142,-696.5 142,-696.5 142,-702.5 136,-708.5 130,-708.5"/>
<text xml:space="preserve" text-anchor="middle" x="93.5" y="-685.45" font-family="Times New Roman,serif" font-size="14.00">HTMX_SPAN</text>
</g>
<!-- HTMX_SPAN&#45;&gt;HTMX_ELEMENT -->
<g id="edge20" class="edge">
<title>HTMX_SPAN&#45;&gt;HTMX_ELEMENT</title>
<path fill="none" stroke="black" d="M142.42,-690.5C211.95,-690.5 331,-690.5 331,-690.5 331,-690.5 331,-1020.64 331,-1020.64"/>
<polygon fill="none" stroke="black" points="327.5,-1020.64 331,-1030.64 334.5,-1020.64 327.5,-1020.64"/>
</g>
<!-- HTMX_TABLE -->
<g id="node24" class="node">
<title>HTMX_TABLE</title>
<path fill="none" stroke="black" d="M134.5,-636.5C134.5,-636.5 52.5,-636.5 52.5,-636.5 46.5,-636.5 40.5,-630.5 40.5,-624.5 40.5,-624.5 40.5,-612.5 40.5,-612.5 40.5,-606.5 46.5,-600.5 52.5,-600.5 52.5,-600.5 134.5,-600.5 134.5,-600.5 140.5,-600.5 146.5,-606.5 146.5,-612.5 146.5,-612.5 146.5,-624.5 146.5,-624.5 146.5,-630.5 140.5,-636.5 134.5,-636.5"/>
<text xml:space="preserve" text-anchor="middle" x="93.5" y="-613.45" font-family="Times New Roman,serif" font-size="14.00">HTMX_TABLE</text>
</g>
<!-- HTMX_TABLE&#45;&gt;HTMX_ELEMENT -->
<g id="edge21" class="edge">
<title>HTMX_TABLE&#45;&gt;HTMX_ELEMENT</title>
<path fill="none" stroke="black" d="M146.99,-618.5C219.48,-618.5 340,-618.5 340,-618.5 340,-618.5 340,-1020.7 340,-1020.7"/>
<polygon fill="none" stroke="black" points="336.5,-1020.7 340,-1030.7 343.5,-1020.7 336.5,-1020.7"/>
</g>
<!-- HTMX_TBODY -->
<g id="node25" class="node">
<title>HTMX_TBODY</title>
<path fill="none" stroke="black" d="M136.38,-564.5C136.38,-564.5 50.62,-564.5 50.62,-564.5 44.62,-564.5 38.62,-558.5 38.62,-552.5 38.62,-552.5 38.62,-540.5 38.62,-540.5 38.62,-534.5 44.62,-528.5 50.62,-528.5 50.62,-528.5 136.38,-528.5 136.38,-528.5 142.38,-528.5 148.38,-534.5 148.38,-540.5 148.38,-540.5 148.38,-552.5 148.38,-552.5 148.38,-558.5 142.38,-564.5 136.38,-564.5"/>
<text xml:space="preserve" text-anchor="middle" x="93.5" y="-541.45" font-family="Times New Roman,serif" font-size="14.00">HTMX_TBODY</text>
</g>
<!-- HTMX_TBODY&#45;&gt;HTMX_ELEMENT -->
<g id="edge22" class="edge">
<title>HTMX_TBODY&#45;&gt;HTMX_ELEMENT</title>
<path fill="none" stroke="black" d="M148.63,-546.5C223.74,-546.5 349,-546.5 349,-546.5 349,-546.5 349,-1020.75 349,-1020.75"/>
<polygon fill="none" stroke="black" points="345.5,-1020.75 349,-1030.75 352.5,-1020.75 345.5,-1020.75"/>
</g>
<!-- HTMX_TD -->
<g id="node26" class="node">
<title>HTMX_TD</title>
<path fill="none" stroke="black" d="M122.12,-492.5C122.12,-492.5 64.88,-492.5 64.88,-492.5 58.88,-492.5 52.88,-486.5 52.88,-480.5 52.88,-480.5 52.88,-468.5 52.88,-468.5 52.88,-462.5 58.88,-456.5 64.88,-456.5 64.88,-456.5 122.12,-456.5 122.12,-456.5 128.12,-456.5 134.12,-462.5 134.12,-468.5 134.12,-468.5 134.12,-480.5 134.12,-480.5 134.12,-486.5 128.12,-492.5 122.12,-492.5"/>
<text xml:space="preserve" text-anchor="middle" x="93.5" y="-469.45" font-family="Times New Roman,serif" font-size="14.00">HTMX_TD</text>
</g>
<!-- HTMX_TD&#45;&gt;HTMX_ELEMENT -->
<g id="edge23" class="edge">
<title>HTMX_TD&#45;&gt;HTMX_ELEMENT</title>
<path fill="none" stroke="black" d="M134.54,-474.5C208.83,-474.5 358,-474.5 358,-474.5 358,-474.5 358,-1020.8 358,-1020.8"/>
<polygon fill="none" stroke="black" points="354.5,-1020.8 358,-1030.8 361.5,-1020.8 354.5,-1020.8"/>
</g>
<!-- HTMX_TEXTAREA -->
<g id="node27" class="node">
<title>HTMX_TEXTAREA</title>
<path fill="none" stroke="black" d="M148.38,-420.5C148.38,-420.5 38.62,-420.5 38.62,-420.5 32.62,-420.5 26.62,-414.5 26.62,-408.5 26.62,-408.5 26.62,-396.5 26.62,-396.5 26.62,-390.5 32.62,-384.5 38.62,-384.5 38.62,-384.5 148.38,-384.5 148.38,-384.5 154.38,-384.5 160.38,-390.5 160.38,-396.5 160.38,-396.5 160.38,-408.5 160.38,-408.5 160.38,-414.5 154.38,-420.5 148.38,-420.5"/>
<text xml:space="preserve" text-anchor="middle" x="93.5" y="-397.45" font-family="Times New Roman,serif" font-size="14.00">HTMX_TEXTAREA</text>
</g>
<!-- HTMX_TEXTAREA&#45;&gt;HTMX_ELEMENT -->
<g id="edge24" class="edge">
<title>HTMX_TEXTAREA&#45;&gt;HTMX_ELEMENT</title>
<path fill="none" stroke="black" d="M160.65,-402.5C241.92,-402.5 368,-402.5 368,-402.5 368,-402.5 368,-1020.64 368,-1020.64"/>
<polygon fill="none" stroke="black" points="364.5,-1020.64 368,-1030.64 371.5,-1020.64 364.5,-1020.64"/>
</g>
<!-- HTMX_TFOOT -->
<g id="node28" class="node">
<title>HTMX_TFOOT</title>
<path fill="none" stroke="black" d="M134.88,-348.5C134.88,-348.5 52.12,-348.5 52.12,-348.5 46.12,-348.5 40.13,-342.5 40.13,-336.5 40.13,-336.5 40.13,-324.5 40.13,-324.5 40.13,-318.5 46.13,-312.5 52.13,-312.5 52.13,-312.5 134.88,-312.5 134.88,-312.5 140.88,-312.5 146.88,-318.5 146.88,-324.5 146.88,-324.5 146.88,-336.5 146.88,-336.5 146.88,-342.5 140.88,-348.5 134.88,-348.5"/>
<text xml:space="preserve" text-anchor="middle" x="93.5" y="-325.45" font-family="Times New Roman,serif" font-size="14.00">HTMX_TFOOT</text>
</g>
<!-- HTMX_TFOOT&#45;&gt;HTMX_ELEMENT -->
<g id="edge25" class="edge">
<title>HTMX_TFOOT&#45;&gt;HTMX_ELEMENT</title>
<path fill="none" stroke="black" d="M147.16,-330.5C229.35,-330.5 377,-330.5 377,-330.5 377,-330.5 377,-1020.83 377,-1020.83"/>
<polygon fill="none" stroke="black" points="373.5,-1020.83 377,-1030.83 380.5,-1020.83 373.5,-1020.83"/>
</g>
<!-- HTMX_TH -->
<g id="node29" class="node">
<title>HTMX_TH</title>
<path fill="none" stroke="black" d="M122.12,-276.5C122.12,-276.5 64.88,-276.5 64.88,-276.5 58.88,-276.5 52.88,-270.5 52.88,-264.5 52.88,-264.5 52.88,-252.5 52.88,-252.5 52.88,-246.5 58.88,-240.5 64.88,-240.5 64.88,-240.5 122.12,-240.5 122.12,-240.5 128.12,-240.5 134.12,-246.5 134.12,-252.5 134.12,-252.5 134.12,-264.5 134.12,-264.5 134.12,-270.5 128.12,-276.5 122.12,-276.5"/>
<text xml:space="preserve" text-anchor="middle" x="93.5" y="-253.45" font-family="Times New Roman,serif" font-size="14.00">HTMX_TH</text>
</g>
<!-- HTMX_TH&#45;&gt;HTMX_ELEMENT -->
<g id="edge26" class="edge">
<title>HTMX_TH&#45;&gt;HTMX_ELEMENT</title>
<path fill="none" stroke="black" d="M134.48,-258.5C214.98,-258.5 386,-258.5 386,-258.5 386,-258.5 386,-1020.58 386,-1020.58"/>
<polygon fill="none" stroke="black" points="382.5,-1020.57 386,-1030.58 389.5,-1020.58 382.5,-1020.57"/>
</g>
<!-- HTMX_THEAD -->
<g id="node30" class="node">
<title>HTMX_THEAD</title>
<path fill="none" stroke="black" d="M136,-204.5C136,-204.5 51,-204.5 51,-204.5 45,-204.5 39,-198.5 39,-192.5 39,-192.5 39,-180.5 39,-180.5 39,-174.5 45,-168.5 51,-168.5 51,-168.5 136,-168.5 136,-168.5 142,-168.5 148,-174.5 148,-180.5 148,-180.5 148,-192.5 148,-192.5 148,-198.5 142,-204.5 136,-204.5"/>
<text xml:space="preserve" text-anchor="middle" x="93.5" y="-181.45" font-family="Times New Roman,serif" font-size="14.00">HTMX_THEAD</text>
</g>
<!-- HTMX_THEAD&#45;&gt;HTMX_ELEMENT -->
<g id="edge27" class="edge">
<title>HTMX_THEAD&#45;&gt;HTMX_ELEMENT</title>
<path fill="none" stroke="black" d="M148.45,-186.5C235.41,-186.5 395,-186.5 395,-186.5 395,-186.5 395,-1020.54 395,-1020.54"/>
<polygon fill="none" stroke="black" points="391.5,-1020.54 395,-1030.54 398.5,-1020.54 391.5,-1020.54"/>
</g>
<!-- HTMX_TR -->
<g id="node31" class="node">
<title>HTMX_TR</title>
<path fill="none" stroke="black" d="M121.75,-132.5C121.75,-132.5 65.25,-132.5 65.25,-132.5 59.25,-132.5 53.25,-126.5 53.25,-120.5 53.25,-120.5 53.25,-108.5 53.25,-108.5 53.25,-102.5 59.25,-96.5 65.25,-96.5 65.25,-96.5 121.75,-96.5 121.75,-96.5 127.75,-96.5 133.75,-102.5 133.75,-108.5 133.75,-108.5 133.75,-120.5 133.75,-120.5 133.75,-126.5 127.75,-132.5 121.75,-132.5"/>
<text xml:space="preserve" text-anchor="middle" x="93.5" y="-109.45" font-family="Times New Roman,serif" font-size="14.00">HTMX_TR</text>
</g>
<!-- HTMX_TR&#45;&gt;HTMX_ELEMENT -->
<g id="edge28" class="edge">
<title>HTMX_TR&#45;&gt;HTMX_ELEMENT</title>
<path fill="none" stroke="black" d="M134.09,-114.5C218.26,-114.5 404,-114.5 404,-114.5 404,-114.5 404,-1020.71 404,-1020.71"/>
<polygon fill="none" stroke="black" points="400.5,-1020.71 404,-1030.71 407.5,-1020.71 400.5,-1020.71"/>
</g>
<!-- HTMX_UL -->
<g id="node32" class="node">
<title>HTMX_UL</title>
<path fill="none" stroke="black" d="M122.12,-60.5C122.12,-60.5 64.88,-60.5 64.88,-60.5 58.88,-60.5 52.88,-54.5 52.88,-48.5 52.88,-48.5 52.88,-36.5 52.88,-36.5 52.88,-30.5 58.88,-24.5 64.88,-24.5 64.88,-24.5 122.12,-24.5 122.12,-24.5 128.12,-24.5 134.12,-30.5 134.12,-36.5 134.12,-36.5 134.12,-48.5 134.12,-48.5 134.12,-54.5 128.12,-60.5 122.12,-60.5"/>
<text xml:space="preserve" text-anchor="middle" x="93.5" y="-37.45" font-family="Times New Roman,serif" font-size="14.00">HTMX_UL</text>
</g>
<!-- HTMX_UL&#45;&gt;HTMX_ELEMENT -->
<g id="edge29" class="edge">
<title>HTMX_UL&#45;&gt;HTMX_ELEMENT</title>
<path fill="none" stroke="black" d="M134.61,-42.5C220.91,-42.5 413,-42.5 413,-42.5 413,-42.5 413,-1020.63 413,-1020.63"/>
<polygon fill="none" stroke="black" points="409.5,-1020.63 413,-1030.63 416.5,-1020.63 409.5,-1020.63"/>
</g>
<!-- LIB_TESTS -->
<g id="node33" class="node">
<title>LIB_TESTS</title>
<path fill="none" stroke="black" d="M123.62,-2364.5C123.62,-2364.5 63.38,-2364.5 63.38,-2364.5 57.38,-2364.5 51.38,-2358.5 51.38,-2352.5 51.38,-2352.5 51.38,-2340.5 51.38,-2340.5 51.38,-2334.5 57.38,-2328.5 63.38,-2328.5 63.38,-2328.5 123.62,-2328.5 123.62,-2328.5 129.62,-2328.5 135.62,-2334.5 135.62,-2340.5 135.62,-2340.5 135.62,-2352.5 135.62,-2352.5 135.62,-2358.5 129.62,-2364.5 123.62,-2364.5"/>
<text xml:space="preserve" text-anchor="middle" x="93.5" y="-2341.45" font-family="Times New Roman,serif" font-size="14.00">LIB_TESTS</text>
</g>
<!-- TEST_SET_BASE -->
<g id="node34" class="node">
<title>TEST_SET_BASE</title>
<path fill="none" stroke="black" d="M406.62,-2328.5C406.62,-2328.5 310.38,-2328.5 310.38,-2328.5 304.38,-2328.5 298.38,-2322.5 298.38,-2316.5 298.38,-2316.5 298.38,-2304.5 298.38,-2304.5 298.38,-2298.5 304.38,-2292.5 310.38,-2292.5 310.38,-2292.5 406.62,-2292.5 406.62,-2292.5 412.62,-2292.5 418.62,-2298.5 418.62,-2304.5 418.62,-2304.5 418.62,-2316.5 418.62,-2316.5 418.62,-2322.5 412.62,-2328.5 406.62,-2328.5"/>
<text xml:space="preserve" text-anchor="middle" x="358.5" y="-2305.45" font-family="Times New Roman,serif" font-size="14.00">TEST_SET_BASE</text>
</g>
<!-- LIB_TESTS&#45;&gt;TEST_SET_BASE -->
<g id="edge30" class="edge">
<title>LIB_TESTS&#45;&gt;TEST_SET_BASE</title>
<path fill="none" stroke="black" d="M93,-2328.01C93,-2321.84 93,-2316.5 93,-2316.5 93,-2316.5 286.41,-2316.5 286.41,-2316.5"/>
<polygon fill="none" stroke="black" points="286.41,-2320 296.41,-2316.5 286.41,-2313 286.41,-2320"/>
</g>
<!-- TEST_APP -->
<g id="node35" class="node">
<title>TEST_APP</title>
<path fill="none" stroke="black" d="M121.38,-2436.5C121.38,-2436.5 65.62,-2436.5 65.62,-2436.5 59.62,-2436.5 53.62,-2430.5 53.62,-2424.5 53.62,-2424.5 53.62,-2412.5 53.62,-2412.5 53.62,-2406.5 59.62,-2400.5 65.62,-2400.5 65.62,-2400.5 121.38,-2400.5 121.38,-2400.5 127.38,-2400.5 133.38,-2406.5 133.38,-2412.5 133.38,-2412.5 133.38,-2424.5 133.38,-2424.5 133.38,-2430.5 127.38,-2436.5 121.38,-2436.5"/>
<text xml:space="preserve" text-anchor="middle" x="93.5" y="-2413.45" font-family="Times New Roman,serif" font-size="14.00">TEST_APP</text>
</g>
<!-- TEST_HTMX_ELEMENTS -->
<g id="node36" class="node">
<title>TEST_HTMX_ELEMENTS</title>
<path fill="none" stroke="black" d="M168.25,-2292.5C168.25,-2292.5 18.75,-2292.5 18.75,-2292.5 12.75,-2292.5 6.75,-2286.5 6.75,-2280.5 6.75,-2280.5 6.75,-2268.5 6.75,-2268.5 6.75,-2262.5 12.75,-2256.5 18.75,-2256.5 18.75,-2256.5 168.25,-2256.5 168.25,-2256.5 174.25,-2256.5 180.25,-2262.5 180.25,-2268.5 180.25,-2268.5 180.25,-2280.5 180.25,-2280.5 180.25,-2286.5 174.25,-2292.5 168.25,-2292.5"/>
<text xml:space="preserve" text-anchor="middle" x="93.5" y="-2269.45" font-family="Times New Roman,serif" font-size="14.00">TEST_HTMX_ELEMENTS</text>
</g>
<!-- TEST_HTMX_ELEMENTS&#45;&gt;TEST_SET_BASE -->
<g id="edge31" class="edge">
<title>TEST_HTMX_ELEMENTS&#45;&gt;TEST_SET_BASE</title>
<path fill="none" stroke="black" d="M158,-2292.99C158,-2299.16 158,-2304.5 158,-2304.5 158,-2304.5 286.56,-2304.5 286.56,-2304.5"/>
<polygon fill="none" stroke="black" points="286.56,-2308 296.56,-2304.5 286.56,-2301 286.56,-2308"/>
</g>
</g>
</svg>
