<?xml version="1.0" encoding="UTF-8" standalone="no"?>
<!DOCTYPE svg PUBLIC "-//W3C//DTD SVG 1.1//EN"
 "http://www.w3.org/Graphics/SVG/1.1/DTD/svg11.dtd">
<!-- Generated by graphviz version 14.1.1 (20251213.1925)
 -->
<!-- Title: Dependencies Pages: 1 -->
<svg width="336pt" height="213pt"
 viewBox="0.00 0.00 336.00 213.00" xmlns="http://www.w3.org/2000/svg" xmlns:xlink="http://www.w3.org/1999/xlink">
<g id="graph0" class="graph" transform="scale(1 1) rotate(0) translate(4 208.5)">
<title>Dependencies</title>
<polygon fill="white" stroke="none" points="-4,4 -4,-208.5 331.5,-208.5 331.5,4 -4,4"/>
<text xml:space="preserve" text-anchor="middle" x="163.75" y="-7.2" font-family="Times New Roman,serif" font-size="14.00">simple_htmx &#45; Dependencies</text>
<!-- simple_htmx -->
<g id="node1" class="node">
<title>simple_htmx</title>
<polygon fill="lightblue" stroke="black" points="88,-132.5 0,-132.5 0,-96.5 88,-96.5 88,-132.5"/>
<text xml:space="preserve" text-anchor="middle" x="44" y="-109.45" font-family="Times New Roman,serif" font-size="14.00">simple_htmx</text>
</g>
<!-- simple_testing -->
<g id="node2" class="node">
<title>simple_testing</title>
<polygon fill="lightblue" stroke="black" points="327.5,-204.5 232,-204.5 232,-168.5 327.5,-168.5 327.5,-204.5"/>
<text xml:space="preserve" text-anchor="middle" x="279.75" y="-181.45" font-family="Times New Roman,serif" font-size="14.00">simple_testing</text>
</g>
<!-- simple_htmx&#45;&gt;simple_testing -->
<g id="edge1" class="edge">
<title>simple_htmx&#45;&gt;simple_testing</title>
<path fill="none" stroke="black" stroke-dasharray="5,2" d="M88.05,-120.5C146.53,-120.5 242.5,-120.5 242.5,-120.5 242.5,-120.5 242.5,-156.6 242.5,-156.6"/>
<polygon fill="black" stroke="black" points="239,-156.6 242.5,-166.6 246,-156.6 239,-156.6"/>
</g>
<!-- base -->
<g id="node3" class="node">
<title>base</title>
<polygon fill="lightgray" stroke="black" points="306.75,-132.5 252.75,-132.5 252.75,-96.5 306.75,-96.5 306.75,-132.5"/>
<text xml:space="preserve" text-anchor="middle" x="279.75" y="-109.45" font-family="Times New Roman,serif" font-size="14.00">base</text>
</g>
<!-- simple_htmx&#45;&gt;base -->
<g id="edge2" class="edge">
<title>simple_htmx&#45;&gt;base</title>
<path fill="none" stroke="black" stroke-dasharray="5,2" d="M88.34,-108.5C88.34,-108.5 241.01,-108.5 241.01,-108.5"/>
<polygon fill="black" stroke="black" points="241.01,-112 251.01,-108.5 241.01,-105 241.01,-112"/>
</g>
<!-- testing -->
<g id="node4" class="node">
<title>testing</title>
<polygon fill="lightgray" stroke="black" points="306.75,-60.5 252.75,-60.5 252.75,-24.5 306.75,-24.5 306.75,-60.5"/>
<text xml:space="preserve" text-anchor="middle" x="279.75" y="-37.45" font-family="Times New Roman,serif" font-size="14.00">testing</text>
</g>
<!-- simple_htmx&#45;&gt;testing -->
<g id="edge3" class="edge">
<title>simple_htmx&#45;&gt;testing</title>
<path fill="none" stroke="black" stroke-dasharray="5,2" d="M43.5,-96.33C43.5,-75 43.5,-42.5 43.5,-42.5 43.5,-42.5 241.14,-42.5 241.14,-42.5"/>
<polygon fill="black" stroke="black" points="241.14,-46 251.14,-42.5 241.14,-39 241.14,-46"/>
</g>
</g>
</svg>
